<svg xmlns="http://www.w3.org/2000/svg" viewBox="0 0 100 100">
  <defs>
    <linearGradient id="grad1" x1="0%" y1="0%" x2="100%" y2="100%">
      <stop offset="0%" style="stop-color:#4F46E5;stop-opacity:1" />
      <stop offset="100%" style="stop-color:#06B6D4;stop-opacity:1" />
    </linearGradient>
  </defs>
  
  <!-- Background circle -->
  <circle cx="50" cy="50" r="45" fill="url(#grad1)" stroke="#ffffff" stroke-width="2"/>
  
  <!-- Chef hat -->
  <ellipse cx="50" cy="35" rx="18" ry="12" fill="#ffffff"/>
  <rect x="32" y="35" width="36" height="8" fill="#ffffff"/>
  <circle cx="42" cy="28" r="3" fill="#ffffff"/>
  <circle cx="50" cy="25" r="4" fill="#ffffff"/>
  <circle cx="58" cy="28" r="3" fill="#ffffff"/>
  
  <!-- Cooking pot -->
  <ellipse cx="50" cy="65" rx="20" ry="8" fill="#ffffff"/>
  <rect x="30" y="57" width="40" height="16" fill="#ffffff" rx="2"/>
  <rect x="28" y="60" width="4" height="6" fill="#ffffff" rx="2"/>
  <rect x="68" y="60" width="4" height="6" fill="#ffffff" rx="2"/>
  
  <!-- Steam lines -->
  <path d="M40 50 Q42 45 40 40" stroke="#ffffff" stroke-width="2" fill="none" stroke-linecap="round"/>
  <path d="M50 50 Q52 45 50 40" stroke="#ffffff" stroke-width="2" fill="none" stroke-linecap="round"/>
  <path d="M60 50 Q62 45 60 40" stroke="#ffffff" stroke-width="2" fill="none" stroke-linecap="round"/>
  
  <!-- Heart symbol for care -->
  <path d="M50 80 C45 75, 35 75, 35 65 C35 60, 40 55, 45 60 C47 58, 53 58, 55 60 C60 55, 65 60, 65 65 C65 75, 55 75, 50 80 Z" fill="#FF6B6B"/>
</svg>